<svg width="19" height="21" viewBox="0 0 19 21" fill="none" xmlns="http://www.w3.org/2000/svg">
<path d="M2.23012 12.9781L2.6034 12.6048C2.72384 12.4843 2.79165 12.321 2.79165 12.1507V8.58333C2.79165 4.87843 5.79508 1.87501 9.49998 1.875C13.2049 1.87499 16.2083 4.87842 16.2083 8.58333V12.1506C16.2083 12.321 16.276 12.4843 16.3964 12.6048L16.7697 12.9781C16.884 13.0924 16.9413 13.1496 16.9869 13.213C17.073 13.3329 17.1301 13.4711 17.154 13.6168C17.1667 13.6939 17.1668 13.7747 17.1668 13.9364C17.1668 14.3059 17.1668 14.4906 17.1166 14.6397C17.0209 14.9232 16.7983 15.1457 16.5148 15.2414C16.3657 15.2916 16.1807 15.2917 15.8112 15.2917H3.18846C2.81897 15.2917 2.63417 15.2916 2.48515 15.2414C2.20161 15.1457 1.97922 14.9232 1.88358 14.6397C1.83331 14.4906 1.83331 14.3059 1.83331 13.9364C1.83331 13.7747 1.83331 13.6939 1.84596 13.6168C1.86987 13.4711 1.9269 13.3329 2.013 13.213C2.05856 13.1496 2.11579 13.0924 2.23012 12.9781ZM12.375 15.2917V16.25C12.375 17.8378 11.0878 19.125 9.49998 19.125C7.91216 19.125 6.62498 17.8378 6.62498 16.25V15.2917H12.375Z" stroke="white" stroke-width="2" stroke-linecap="round" stroke-linejoin="round"/>
</svg>
