<svg width="16" height="16" viewBox="0 0 16 16" fill="none" xmlns="http://www.w3.org/2000/svg">
<path d="M2.7763 10.8984C2.6483 10.8984 2.52055 10.8496 2.4228 10.7519C2.22755 10.5566 2.22755 10.2401 2.4228 10.0449L10.2363 2.2314C10.4313 2.03615 10.7481 2.03615 10.9433 2.2314C11.1386 2.42665 11.1386 2.74315 10.9433 2.9384L3.1298 10.7519C3.0323 10.8494 2.9043 10.8984 2.7763 10.8984Z" fill="black"/>
<path d="M2.00392 14.5003C1.96917 14.5003 1.93392 14.4965 1.89867 14.489C1.62867 14.431 1.45667 14.1653 1.51467 13.8953L2.28717 10.2945C2.34517 10.0245 2.61217 9.85302 2.88092 9.91052C3.15092 9.96852 3.32292 10.2343 3.26492 10.5043L2.49242 14.105C2.44217 14.3398 2.23467 14.5003 2.00392 14.5003Z" fill="black"/>
<path d="M5.60443 13.7273C5.47643 13.7273 5.34868 13.6785 5.25093 13.5808C5.05568 13.3855 5.05568 13.069 5.25093 12.8737L13.0644 5.0605C13.2594 4.86525 13.5762 4.86525 13.7714 5.0605C13.9667 5.25575 13.9667 5.57225 13.7714 5.7675L5.95818 13.5808C5.86043 13.6785 5.73243 13.7273 5.60443 13.7273Z" fill="black"/>
<path d="M2.00358 14.5001C1.77283 14.5001 1.56558 14.3396 1.51508 14.1048C1.45733 13.8348 1.62908 13.5691 1.89908 13.5111L5.49983 12.7386C5.77008 12.6813 6.03583 12.8528 6.09358 13.1226C6.15133 13.3926 5.97958 13.6583 5.70958 13.7163L2.10883 14.4888C2.07358 14.4966 2.03833 14.5001 2.00358 14.5001Z" fill="black"/>
<path d="M12.0035 7.32819C11.8755 7.32819 11.7475 7.27944 11.65 7.18169L8.82173 4.35344C8.62648 4.15819 8.62648 3.84169 8.82173 3.64644C9.01673 3.45119 9.33373 3.45119 9.52873 3.64644L12.357 6.47469C12.5522 6.66994 12.5522 6.98644 12.357 7.18169C12.2595 7.27944 12.1315 7.32819 12.0035 7.32819Z" fill="black"/>
<path d="M13.418 5.91431C13.29 5.91431 13.162 5.86556 13.0643 5.76781C12.869 5.57256 12.869 5.25606 13.0643 5.06056C13.3425 4.78231 13.4958 4.40556 13.4958 4.00006C13.4958 3.59456 13.3425 3.21781 13.0643 2.93956C12.7858 2.66106 12.409 2.50781 12.0035 2.50781C11.598 2.50781 11.2213 2.66106 10.943 2.93956C10.748 3.13481 10.4315 3.13506 10.2358 2.93956C10.0405 2.74431 10.0405 2.42781 10.2358 2.23231C10.7028 1.76506 11.3305 1.50781 12.0035 1.50781C12.6763 1.50781 13.3043 1.76506 13.7713 2.23231C14.2385 2.69931 14.4958 3.32706 14.4958 4.00006C14.4958 4.67306 14.2385 5.30081 13.7713 5.76781C13.674 5.86531 13.546 5.91431 13.418 5.91431Z" fill="black"/>
</svg>
