<svg width="15" height="15" viewBox="0 0 15 15" fill="none" xmlns="http://www.w3.org/2000/svg">
<path fill-rule="evenodd" clip-rule="evenodd" d="M9.375 6.56248C9.84613 6.5624 10.3047 6.41031 10.6824 6.1288C11.0602 5.8473 11.3371 5.45141 11.4719 4.99998H13.125C13.2908 4.99998 13.4497 4.93413 13.5669 4.81692C13.6842 4.69971 13.75 4.54074 13.75 4.37498C13.75 4.20922 13.6842 4.05025 13.5669 3.93304C13.4497 3.81583 13.2908 3.74998 13.125 3.74998H11.4719C11.3369 3.29878 11.0599 2.90317 10.6821 2.6219C10.3044 2.34064 9.84597 2.18872 9.375 2.18872C8.90403 2.18872 8.44562 2.34064 8.06786 2.6219C7.6901 2.90317 7.41315 3.29878 7.27812 3.74998H1.875C1.70924 3.74998 1.55027 3.81583 1.43306 3.93304C1.31585 4.05025 1.25 4.20922 1.25 4.37498C1.25 4.54074 1.31585 4.69971 1.43306 4.81692C1.55027 4.93413 1.70924 4.99998 1.875 4.99998H7.27812C7.41292 5.45141 7.68979 5.8473 8.06757 6.1288C8.44534 6.41031 8.90387 6.5624 9.375 6.56248ZM1.875 9.99998C1.70924 9.99998 1.55027 10.0658 1.43306 10.183C1.31585 10.3003 1.25 10.4592 1.25 10.625C1.25 10.7907 1.31585 10.9497 1.43306 11.0669C1.55027 11.1841 1.70924 11.25 1.875 11.25H3.21562C3.35065 11.7012 3.6276 12.0968 4.00536 12.3781C4.38312 12.6593 4.84153 12.8112 5.3125 12.8112C5.78347 12.8112 6.24188 12.6593 6.61964 12.3781C6.99739 12.0968 7.27435 11.7012 7.40937 11.25H13.125C13.2908 11.25 13.4497 11.1841 13.5669 11.0669C13.6842 10.9497 13.75 10.7907 13.75 10.625C13.75 10.4592 13.6842 10.3003 13.5669 10.183C13.4497 10.0658 13.2908 9.99998 13.125 9.99998H7.40937C7.27435 9.54878 6.99739 9.15317 6.61964 8.8719C6.24188 8.59064 5.78347 8.43872 5.3125 8.43872C4.84153 8.43872 4.38312 8.59064 4.00536 8.8719C3.6276 9.15317 3.35065 9.54878 3.21562 9.99998H1.875Z" fill="black"/>
</svg>
