<svg width="138" height="147" viewBox="0 0 138 147" fill="none" xmlns="http://www.w3.org/2000/svg">
<path d="M29.3438 53.6562V68.3125H28.1875C27.8125 65.5 27.1354 63.2604 26.1562 61.5938C25.1979 59.9271 23.8229 58.6042 22.0312 57.625C20.2396 56.6458 18.3854 56.1562 16.4688 56.1562C14.3021 56.1562 12.5104 56.8229 11.0938 58.1562C9.67708 59.4688 8.96875 60.9688 8.96875 62.6562C8.96875 63.9479 9.41667 65.125 10.3125 66.1875C11.6042 67.75 14.6771 69.8333 19.5312 72.4375C23.4896 74.5625 26.1875 76.1979 27.625 77.3438C29.0833 78.4688 30.1979 79.8021 30.9688 81.3438C31.7604 82.8854 32.1562 84.5 32.1562 86.1875C32.1562 89.3958 30.9062 92.1667 28.4062 94.5C25.9271 96.8125 22.7292 97.9688 18.8125 97.9688C17.5833 97.9688 16.4271 97.875 15.3438 97.6875C14.6979 97.5833 13.3542 97.2083 11.3125 96.5625C9.29167 95.8958 8.01042 95.5625 7.46875 95.5625C6.94792 95.5625 6.53125 95.7188 6.21875 96.0312C5.92708 96.3438 5.70833 96.9896 5.5625 97.9688H4.40625V83.4375H5.5625C6.10417 86.4792 6.83333 88.7604 7.75 90.2812C8.66667 91.7812 10.0625 93.0312 11.9375 94.0312C13.8333 95.0312 15.9062 95.5312 18.1562 95.5312C20.7604 95.5312 22.8125 94.8438 24.3125 93.4688C25.8333 92.0938 26.5938 90.4688 26.5938 88.5938C26.5938 87.5521 26.3021 86.5 25.7188 85.4375C25.1562 84.375 24.2708 83.3854 23.0625 82.4688C22.25 81.8438 20.0312 80.5208 16.4062 78.5C12.7812 76.4583 10.1979 74.8333 8.65625 73.625C7.13542 72.4167 5.97917 71.0833 5.1875 69.625C4.39583 68.1667 4 66.5625 4 64.8125C4 61.7708 5.16667 59.1562 7.5 56.9688C9.83333 54.7604 12.8021 53.6562 16.4062 53.6562C18.6562 53.6562 21.0417 54.2083 23.5625 55.3125C24.7292 55.8333 25.5521 56.0938 26.0312 56.0938C26.5729 56.0938 27.0104 55.9375 27.3438 55.625C27.6979 55.2917 27.9792 54.6354 28.1875 53.6562H29.3438Z" fill="white"/>
<path d="M49.1562 48.2812H68.8438V36.1562C68.8438 33.9896 68.7083 32.5625 68.4375 31.875C68.2292 31.3542 67.7917 30.9062 67.125 30.5312C66.2292 30.0312 65.2812 29.7812 64.2812 29.7812H62.7812V28.625H80.9062V29.7812H79.4062C78.4062 29.7812 77.4583 30.0208 76.5625 30.5C75.8958 30.8333 75.4375 31.3438 75.1875 32.0312C74.9583 32.6979 74.8438 34.0729 74.8438 36.1562V63.5C74.8438 65.6458 74.9792 67.0625 75.25 67.75C75.4583 68.2708 75.8854 68.7188 76.5312 69.0938C77.4479 69.5938 78.4062 69.8438 79.4062 69.8438H80.9062V71H62.7812V69.8438H64.2812C66.0104 69.8438 67.2708 69.3333 68.0625 68.3125C68.5833 67.6458 68.8438 66.0417 68.8438 63.5V50.5938H49.1562V63.5C49.1562 65.6458 49.2917 67.0625 49.5625 67.75C49.7708 68.2708 50.2083 68.7188 50.875 69.0938C51.7708 69.5938 52.7188 69.8438 53.7188 69.8438H55.25V71H37.0938V69.8438H38.5938C40.3438 69.8438 41.6146 69.3333 42.4062 68.3125C42.9062 67.6458 43.1562 66.0417 43.1562 63.5V36.1562C43.1562 33.9896 43.0208 32.5625 42.75 31.875C42.5417 31.3542 42.1146 30.9062 41.4688 30.5312C40.5521 30.0312 39.5938 29.7812 38.5938 29.7812H37.0938V28.625H55.25V29.7812H53.7188C52.7188 29.7812 51.7708 30.0208 50.875 30.5C50.2292 30.8333 49.7812 31.3438 49.5312 32.0312C49.2812 32.6979 49.1562 34.0729 49.1562 36.1562V48.2812Z" fill="white"/>
<path d="M78.4062 53.6562C83.9062 53.6562 88.6667 55.75 92.6875 59.9375C96.7292 64.1042 98.75 69.3125 98.75 75.5625C98.75 82 96.7188 87.3438 92.6562 91.5938C88.5938 95.8438 83.6771 97.9688 77.9062 97.9688C72.0729 97.9688 67.1667 95.8958 63.1875 91.75C59.2292 87.6042 57.25 82.2396 57.25 75.6562C57.25 68.9271 59.5417 63.4375 64.125 59.1875C68.1042 55.5 72.8646 53.6562 78.4062 53.6562ZM77.8125 55.9375C74.0208 55.9375 70.9792 57.3438 68.6875 60.1562C65.8333 63.6562 64.4062 68.7812 64.4062 75.5312C64.4062 82.4479 65.8854 87.7708 68.8438 91.5C71.1146 94.3333 74.1146 95.75 77.8438 95.75C81.8229 95.75 85.1042 94.1979 87.6875 91.0938C90.2917 87.9896 91.5938 83.0938 91.5938 76.4062C91.5938 69.1562 90.1667 63.75 87.3125 60.1875C85.0208 57.3542 81.8542 55.9375 77.8125 55.9375Z" fill="white"/>
<path d="M115.125 51.1562V63.5C115.125 66.1667 115.417 67.8229 116 68.4688C116.792 69.3854 117.99 69.8438 119.594 69.8438H121.219V71H103.062V69.8438H104.656C106.448 69.8438 107.729 69.2604 108.5 68.0938C108.917 67.4479 109.125 65.9167 109.125 63.5V36.125C109.125 33.4583 108.844 31.8021 108.281 31.1562C107.469 30.2396 106.26 29.7812 104.656 29.7812H103.062V28.625H118.594C122.385 28.625 125.375 29.0208 127.562 29.8125C129.75 30.5833 131.594 31.8958 133.094 33.75C134.594 35.6042 135.344 37.8021 135.344 40.3438C135.344 43.8021 134.198 46.6146 131.906 48.7812C129.635 50.9479 126.417 52.0312 122.25 52.0312C121.229 52.0312 120.125 51.9583 118.938 51.8125C117.75 51.6667 116.479 51.4479 115.125 51.1562ZM115.125 49.375C116.229 49.5833 117.208 49.7396 118.062 49.8438C118.917 49.9479 119.646 50 120.25 50C122.417 50 124.281 49.1667 125.844 47.5C127.427 45.8125 128.219 43.6354 128.219 40.9688C128.219 39.1354 127.844 37.4375 127.094 35.875C126.344 34.2917 125.281 33.1146 123.906 32.3438C122.531 31.5521 120.969 31.1562 119.219 31.1562C118.156 31.1562 116.792 31.3542 115.125 31.75V49.375Z" fill="white"/>
</svg>
